<?xml version="1.0" standalone="no"?>
<!DOCTYPE svg PUBLIC "-//W3C//DTD SVG 20010904//EN"
 "http://www.w3.org/TR/2001/REC-SVG-20010904/DTD/svg10.dtd">
<svg version="1.0" xmlns="http://www.w3.org/2000/svg"
 width="750.000000pt" height="750.000000pt" viewBox="0 0 750.000000 750.000000"
 preserveAspectRatio="xMidYMid meet">

<g transform="translate(0.000000,750.000000) scale(0.100000,-0.100000)"
fill="#000000" stroke="none">
<path d="M3010 6290 c-19 -4 -70 -15 -113 -24 -81 -17 -157 -46 -259 -97 -32
-16 -74 -29 -93 -29 -32 0 -36 -3 -30 -20 6 -18 3 -19 -27 -14 -18 3 -38 7
-44 9 -6 2 -17 0 -24 -5 -9 -6 -7 -10 9 -15 11 -3 21 -11 21 -16 0 -14 -72
-10 -100 6 -29 16 -40 18 -40 7 0 -4 15 -16 33 -27 67 -39 65 -45 -16 -45 -59
0 -74 -3 -74 -15 0 -8 5 -15 11 -14 33 4 39 -3 14 -17 -24 -13 -32 -13 -65 1
l-38 15 28 -25 c15 -13 27 -27 27 -31 0 -15 -110 3 -132 22 -20 16 -20 15 2
-10 14 -16 39 -35 55 -42 29 -13 30 -13 5 -15 l-25 -1 24 -7 c23 -6 22 -8 -25
-47 -58 -49 -99 -71 -151 -82 l-38 -9 42 -7 c30 -6 50 -3 75 9 42 22 29 10
-47 -45 -33 -24 -88 -68 -122 -97 -34 -30 -74 -58 -90 -63 -25 -7 -26 -8 -5
-9 29 -1 58 14 96 48 l29 26 -16 -26 c-9 -14 -26 -51 -36 -82 -25 -73 -70
-137 -144 -209 -33 -32 -55 -58 -51 -58 12 0 73 37 105 64 14 11 6 3 -17 -20
-26 -25 -66 -49 -103 -63 -76 -28 -84 -39 -20 -31 27 4 49 4 49 1 0 -3 -23
-29 -52 -58 -52 -53 -53 -62 -4 -43 32 12 33 0 4 -27 -39 -36 -113 -34 -160 4
l-33 27 30 -32 c37 -41 91 -59 134 -44 18 6 31 7 31 2 0 -27 -117 -48 -165
-30 -23 9 -27 9 -18 -1 6 -6 38 -15 70 -18 l58 -7 -52 -8 c-62 -9 -102 -2
-140 26 -18 12 -15 9 7 -11 19 -17 49 -34 67 -37 49 -9 49 -21 1 -33 l-43 -10
47 5 48 5 -30 -30 c-17 -16 -30 -34 -30 -40 0 -6 12 2 28 18 15 16 38 32 52
36 23 6 23 5 -7 -19 -39 -33 -57 -82 -47 -133 l8 -38 7 50 c6 38 16 57 39 78
44 39 54 33 23 -14 -22 -33 -28 -57 -31 -110 -4 -64 -2 -73 28 -119 18 -27 34
-50 37 -50 2 0 -5 15 -16 34 -25 40 -28 123 -6 166 20 39 26 38 14 -2 -14 -49
-11 -89 10 -151 12 -33 16 -57 10 -57 -6 0 -9 -6 -6 -12 2 -7 0 -22 -6 -33 -9
-18 -8 -18 6 -6 9 7 19 28 23 47 9 49 24 32 24 -27 0 -46 4 -54 50 -103 28
-29 50 -58 50 -64 0 -6 -10 -18 -22 -26 -12 -9 -18 -16 -12 -16 16 0 55 31 53
43 -4 35 1 40 21 22 29 -26 33 -49 16 -89 -8 -20 -11 -36 -7 -36 16 0 43 40
56 82 14 48 8 54 53 -53 12 -28 36 -58 63 -79 l44 -35 -38 43 c-30 34 -37 50
-37 83 0 40 14 79 28 79 4 0 7 -21 8 -48 0 -32 9 -62 28 -95 l28 -48 30 47
c16 25 31 45 33 42 2 -2 -2 -33 -9 -68 -18 -86 -4 -109 31 -50 29 48 35 50 27
10 -4 -19 -2 -30 5 -30 6 0 11 1 11 3 0 1 7 20 16 42 l15 40 -5 -52 c-3 -29
-2 -53 1 -53 10 0 33 34 54 79 11 24 22 41 25 38 4 -3 -5 -27 -20 -53 -37 -66
-32 -74 14 -29 l40 39 -6 -49 c-3 -28 -8 -57 -10 -65 -2 -8 15 5 38 30 23 25
38 38 33 30 -4 -8 9 1 29 20 l37 35 -10 -28 c-20 -52 -11 -53 13 -2 13 28 32
58 44 68 20 18 20 18 15 -2 -3 -11 -9 -18 -14 -15 -11 7 -11 4 2 -34 6 -17 16
-30 22 -29 6 1 12 -8 13 -21 1 -12 9 -31 19 -42 21 -23 44 -28 25 -6 -10 13
-7 13 20 3 25 -10 28 -13 13 -19 -10 -3 -12 -7 -5 -7 7 -1 26 6 42 14 17 9 30
13 30 10 0 -3 15 2 33 11 44 23 19 29 -39 9 -59 -20 -94 -8 -125 42 -16 25
-19 42 -14 69 7 39 26 41 35 5 3 -12 8 -21 12 -19 3 2 17 -6 30 -18 13 -11 36
-28 52 -38 25 -16 28 -16 23 -3 -5 13 -2 14 16 6 25 -11 82 4 73 20 -3 5 -29
12 -56 16 -28 4 -60 16 -73 27 -12 11 -15 16 -7 12 26 -14 99 -21 97 -10 -1 6
13 10 33 10 l35 -2 -35 15 c-47 20 -80 52 -80 77 0 17 2 18 10 6 9 -13 10 -13
11 0 1 8 1 18 0 23 -2 13 16 7 30 -10 19 -22 72 -43 106 -42 24 1 22 2 -11 10
-46 11 -96 45 -96 65 0 19 6 18 43 -10 55 -40 74 -39 29 2 -23 21 -42 45 -42
53 0 7 24 -9 52 -36 29 -28 43 -39 32 -25 -45 55 -50 66 -19 40 46 -38 61 -55
68 -70 3 -10 6 -8 6 7 1 12 -17 43 -40 69 -53 62 -49 77 24 88 38 6 61 6 65 0
11 -15 84 -34 133 -34 54 0 127 34 194 90 28 22 57 47 66 54 9 8 39 26 65 42
27 15 69 43 93 61 25 19 92 58 150 87 l106 53 85 -49 c109 -63 123 -77 157
-157 15 -36 32 -69 38 -73 17 -13 62 -9 75 7 7 8 17 12 22 8 6 -3 9 0 6 8 -3
8 -13 15 -24 17 -55 8 -66 16 -105 75 -50 76 -73 96 -166 148 l-73 40 1 47 c0
26 3 40 7 32 9 -19 33 -25 26 -6 -3 8 8 23 26 36 28 20 36 21 68 12 22 -7 41
-8 51 -2 12 7 12 9 2 10 -11 0 -11 3 0 16 11 14 10 18 -6 30 -10 8 -22 14 -25
14 -12 0 -8 39 6 51 33 27 2 142 -51 188 -39 34 -126 56 -183 46 -54 -9 -113
-45 -140 -85 -19 -29 -23 -43 -18 -80 6 -48 47 -96 69 -84 7 4 9 4 5 -1 -4 -4
-18 -13 -30 -19 -27 -13 -35 -50 -17 -72 9 -11 23 -13 51 -9 49 9 64 -4 73
-58 4 -23 13 -50 20 -60 13 -18 13 -18 24 0 6 10 11 13 11 7 0 -17 -19 -29
-88 -58 -35 -14 -116 -56 -180 -95 -165 -99 -242 -115 -438 -96 l-80 8 -37
-33 c-45 -39 -42 -52 5 -19 28 20 43 23 93 20 33 -1 103 -4 157 -5 106 -1 109
-4 51 -57 -34 -32 -76 -54 -121 -64 -27 -6 -48 1 -117 35 -47 23 -99 44 -117
45 -28 2 -33 6 -31 26 7 73 4 133 -10 203 -14 69 -14 83 -2 106 8 15 21 30 30
33 8 4 15 13 15 21 0 9 24 20 70 31 92 23 125 46 174 127 46 75 198 266 181
228 -4 -8 2 -6 12 6 10 11 41 38 68 59 28 21 48 38 45 39 -3 0 4 15 16 31 30
45 40 73 59 166 9 46 21 89 25 94 17 22 20 70 9 126 -7 35 -16 56 -22 52 -6
-4 -7 4 -3 21 4 16 3 25 -2 22 -6 -3 -15 14 -21 39 -6 25 -14 45 -17 45 -3 0
-3 -10 0 -22 4 -13 -5 0 -19 27 -14 28 -23 39 -20 25 5 -26 -51 87 -65 130 -4
14 -11 34 -16 44 -6 15 -4 17 7 11 8 -4 -4 11 -26 34 -50 53 -83 71 -131 71
-36 0 -37 -1 -18 -15 17 -13 15 -13 -18 0 -40 16 -71 17 -128 5z m226 -60 c30
0 99 -103 130 -194 12 -37 12 -39 -1 -22 -8 11 -15 26 -15 34 0 7 -4 10 -10 7
-5 -3 -10 1 -10 10 0 23 -47 92 -104 155 -28 30 -39 45 -25 32 14 -12 30 -22
35 -22z m-83 -34 c-4 -5 1 -7 11 -3 21 8 64 -22 108 -77 l33 -41 -33 23 c-17
13 -32 27 -32 31 0 5 -17 21 -37 36 l-38 28 41 -44 c67 -73 72 -87 9 -27 -33
32 -68 63 -78 71 -18 12 -17 13 2 13 11 0 17 -5 14 -10z m61 -95 c65 -67 36
-52 -34 18 -36 35 -51 55 -35 44 17 -12 48 -40 69 -62z m-99 46 c20 -5 64 -39
78 -61 15 -22 15 -22 -37 3 -28 14 -80 35 -116 48 -38 13 -51 21 -32 18 18 -2
31 -1 28 4 -3 5 11 5 32 0 20 -6 42 -11 47 -12z m-44 -57 c22 -12 37 -25 34
-30 -3 -5 0 -7 8 -4 8 3 20 -2 27 -11 11 -14 9 -15 -21 -14 -57 2 -139 20
-139 30 0 5 -8 10 -17 11 -10 0 2 4 27 7 l45 7 -35 11 -35 11 33 1 c18 1 51
-8 73 -19z m-57 -69 c11 -4 20 -14 22 -23 2 -13 -3 -14 -34 -4 -26 7 -31 12
-18 14 15 3 16 6 5 13 -17 10 -2 11 25 0z m-671 -28 c-7 -2 -19 -2 -25 0 -7 3
-2 5 12 5 14 0 19 -2 13 -5z m156 -32 c10 -6 -14 -11 -70 -13 -46 -2 -93 -7
-104 -11 -11 -5 -4 1 15 12 37 21 133 28 159 12z m526 -21 c14 -7 8 -8 -20 -3
-22 3 -42 7 -44 9 -9 8 45 2 64 -6z m171 -21 c3 -5 0 -9 -6 -9 -6 0 -9 -4 -6
-9 3 -5 -8 -8 -24 -7 -21 2 -29 -2 -26 -10 3 -8 -1 -11 -10 -7 -7 3 -14 0 -14
-7 0 -7 -8 -10 -20 -7 -12 3 -18 1 -14 -5 5 -7 -3 -9 -20 -6 -26 5 -26 5 -9
-15 18 -20 17 -20 -5 -14 -20 5 -21 3 -10 -10 12 -15 9 -16 -27 -10 -22 4 -62
7 -90 8 l-50 1 38 17 c20 10 34 20 31 24 -12 12 132 71 196 79 30 4 58 -1 66
-13z m-661 1 c-3 -5 -14 -10 -23 -11 -14 0 -13 -2 3 -8 19 -8 19 -8 -4 -21
-13 -6 -37 -16 -54 -21 -29 -8 -29 -8 -12 11 18 20 18 20 -16 15 l-34 -6 30
15 30 15 -35 -5 -35 -4 40 14 c47 17 119 21 110 6z m777 -72 c10 3 10 -11 2
-32 -5 -13 -8 -13 -20 -1 -8 7 -14 19 -14 26 0 7 -12 28 -26 48 l-26 36 38
-40 c22 -22 42 -39 46 -37z m-812 -3 c0 -8 5 -15 12 -15 6 0 -1 -13 -16 -29
-31 -32 -27 -56 7 -45 20 6 19 4 -6 -24 -24 -25 -26 -30 -12 -36 9 -3 14 -2
11 2 -3 5 1 9 9 9 10 0 6 -9 -11 -29 -13 -16 -24 -33 -25 -36 0 -4 -2 -15 -4
-24 -5 -25 4 -22 38 10 l29 27 -22 -37 c-12 -21 -27 -35 -33 -31 -6 3 -7 1 -3
-6 4 -6 -3 -28 -15 -49 l-22 -37 31 35 32 35 -16 -45 c-15 -46 -62 -125 -70
-118 -12 12 -6 216 7 241 13 24 2 42 -17 26 -28 -23 -15 12 21 56 25 30 32 45
24 51 -7 4 -9 3 -5 -4 3 -6 2 -13 -3 -16 -23 -14 -1 30 25 51 l29 23 -50 -15
c-60 -18 -58 -18 -49 -4 6 10 79 47 97 48 4 1 7 -6 7 -14z m860 -108 c-10 -9
-11 -9 -6 1 4 7 3 18 -2 25 -6 7 -7 26 -4 42 6 30 6 29 16 -13 7 -32 6 -46 -4
-55z m-33 51 c-3 -8 -6 -5 -6 6 -1 11 2 17 5 13 3 -3 4 -12 1 -19z m93 -70 c0
-16 -4 -27 -9 -24 -5 4 -12 0 -15 -6 -8 -16 -1 19 9 47 l7 20 -17 -20 c-17
-20 -17 -20 -11 5 3 14 6 36 6 50 1 23 2 22 15 -9 8 -18 15 -47 15 -63z m-430
66 c0 -2 -24 -3 -52 -3 -43 1 -47 3 -23 8 28 6 75 3 75 -5z m4 -74 c5 -5 -19
-12 -53 -16 -64 -7 -93 -23 -44 -25 l28 -1 -33 -11 c-18 -5 -44 -21 -59 -35
-24 -22 -25 -26 -10 -31 14 -5 5 -15 -42 -49 -33 -23 -64 -42 -68 -42 -4 0 0
5 10 11 9 6 15 15 12 20 -4 5 -11 7 -16 4 -17 -11 -9 8 14 33 12 14 15 22 7
18 -8 -4 3 9 24 30 22 21 31 34 20 30 -15 -6 -14 -2 6 19 31 33 55 47 100 56
38 7 90 2 104 -11z m-1088 -258 c-17 -50 -55 -102 -76 -102 -5 0 2 17 18 38
15 22 36 58 46 81 25 55 32 45 12 -17z m1178 42 c24 -9 19 -24 -8 -24 -31 0
-56 10 -56 21 0 10 40 12 64 3z m121 -57 c25 -43 32 -100 17 -124 -11 -17
-117 -60 -167 -67 l-40 -6 42 16 c85 31 132 108 117 189 -8 46 0 44 31 -8z
m-720 24 c-3 -5 -1 -12 4 -15 5 -4 7 -23 4 -43 -4 -26 -3 -34 5 -29 7 4 13 1
13 -6 2 -18 1 -21 -7 -42 -4 -12 -4 -17 2 -13 19 11 37 -9 26 -29 -5 -11 -12
-32 -16 -49 -7 -28 -6 -29 7 -11 14 19 15 19 26 -2 15 -29 14 -42 -10 -81 -18
-30 -22 -33 -30 -18 -11 19 -21 70 -21 104 0 13 -5 20 -13 17 -18 -7 -25 53
-9 74 17 22 18 37 1 23 -8 -6 -17 -8 -20 -5 -8 8 2 63 17 89 5 11 11 23 12 28
3 15 4 17 10 17 3 0 3 -4 -1 -9z m925 -40 c-6 -11 -20 -26 -33 -32 -21 -12
-21 -11 -7 7 8 10 21 25 28 32 6 7 12 19 13 25 0 9 2 9 5 0 3 -7 0 -21 -6 -32z
m-440 15 c0 -3 -4 -8 -10 -11 -5 -3 -10 -1 -10 4 0 6 5 11 10 11 6 0 10 -2 10
-4z m285 -106 c-4 -12 -9 -19 -12 -17 -3 3 -2 15 2 27 4 12 9 19 12 17 3 -3 2
-15 -2 -27z m565 -92 c24 -13 46 -28 47 -34 2 -7 -18 -1 -44 13 -41 21 -59 24
-122 21 -66 -3 -76 -6 -97 -31 -13 -16 -24 -23 -24 -17 0 16 49 58 73 63 61
12 125 6 167 -15z m-1197 -194 c25 -21 31 -33 29 -58 -2 -17 -4 -41 -5 -53 -2
-16 -5 -19 -15 -10 -10 8 -16 7 -23 -4 -6 -9 -8 -3 -4 21 5 39 -16 77 -36 64
-8 -4 -10 -3 -5 4 4 7 2 12 -4 12 -6 0 -8 10 -4 28 7 27 7 27 -15 8 -19 -17
-21 -18 -21 -2 0 20 16 54 39 80 15 17 16 16 24 -23 5 -27 19 -49 40 -67z
m977 45 c0 -4 -7 -6 -15 -3 -8 4 -15 10 -15 15 0 4 7 6 15 3 8 -4 15 -10 15
-15z m-965 -218 c3 -5 1 -12 -5 -16 -5 -3 -10 1 -10 9 0 18 6 21 15 7z m76
-18 c13 -16 12 -17 -3 -4 -10 7 -18 15 -18 17 0 8 8 3 21 -13z m-31 -13 c0 -5
-12 -10 -27 -10 -22 0 -25 2 -13 10 20 13 40 13 40 0z m-1026 -259 c-10 -13
-24 59 -18 89 8 33 8 32 14 -25 4 -33 5 -62 4 -64z m77 -64 c-16 -45 -13 -88
9 -125 11 -18 20 -40 20 -49 0 -24 -49 23 -66 63 -11 27 -10 42 9 119 20 81
22 85 30 55 5 -20 4 -44 -2 -63z m75 -128 c15 -17 16 -19 2 -14 -26 10 -48 51
-47 87 0 33 1 32 14 -10 7 -24 21 -52 31 -63z m244 -180 c0 -6 -4 -7 -10 -4
-5 3 -10 11 -10 16 0 6 5 7 10 4 6 -3 10 -11 10 -16z m611 -26 c13 -16 12 -17
-3 -4 -17 13 -22 21 -14 21 2 0 10 -8 17 -17z m44 8 c3 -5 1 -12 -5 -16 -5 -3
-10 1 -10 9 0 18 6 21 15 7z m-360 -69 c-23 -61 -37 -76 -24 -26 16 60 32 99
37 85 2 -7 -4 -34 -13 -59z m245 33 c14 -19 14 -19 -2 -6 -10 7 -18 18 -18 24
0 6 1 8 3 6 1 -2 9 -13 17 -24z m-60 -90 c7 -9 8 -15 2 -15 -5 0 -12 7 -16 15
-3 8 -4 15 -2 15 2 0 9 -7 16 -15z"/>
<path d="M3008 6003 c7 -3 16 -2 19 1 4 3 -2 6 -13 5 -11 0 -14 -3 -6 -6z"/>
<path d="M2835 5670 c-3 -6 1 -7 9 -4 18 7 21 14 7 14 -6 0 -13 -4 -16 -10z"/>
<path d="M3985 6119 c-4 -5 -3 -13 0 -19 3 -5 -4 -28 -15 -51 -14 -27 -18 -45
-12 -51 7 -7 14 -3 22 12 10 18 10 21 -2 15 -7 -5 -10 -4 -5 0 4 5 16 10 27
12 15 2 18 -1 13 -15 -10 -26 -73 -107 -84 -107 -20 0 -102 -156 -113 -215 -5
-28 0 -23 24 28 35 76 48 83 15 9 -45 -103 -55 -151 -44 -219 10 -66 37 -130
51 -122 4 3 8 0 8 -5 0 -6 7 -11 16 -11 8 0 12 -4 9 -10 -3 -5 -1 -10 5 -10 7
0 51 -39 98 -87 48 -48 80 -83 72 -78 -11 7 -11 3 3 -18 10 -15 31 -63 47
-107 48 -130 55 -140 98 -142 37 -1 37 -1 5 -5 -39 -5 -44 -29 -10 -43 18 -7
18 -9 4 -9 -10 -1 -16 -5 -13 -9 9 -14 19 -75 17 -104 -1 -16 6 -31 16 -37 17
-10 17 -10 -1 -11 -12 0 -16 -5 -12 -15 3 -8 0 -15 -6 -15 -7 0 1 -15 18 -32
28 -32 28 -32 1 -9 l-27 25 2 -30 c1 -16 6 -36 12 -44 7 -9 2 -8 -11 3 -21 18
-21 18 -28 -2 -3 -12 -11 -21 -16 -21 -5 0 1 -19 15 -42 33 -59 48 -118 55
-218 l6 -85 23 49 c26 56 36 57 21 2 -12 -45 2 -90 34 -107 19 -11 19 -10 2
19 -13 20 -16 38 -11 58 l8 29 13 -35 c7 -19 20 -52 29 -74 18 -41 15 -77 -11
-131 l-14 -30 20 25 c11 14 28 39 36 55 l16 30 -4 -43 c-3 -24 -14 -53 -24
-65 -18 -21 -18 -21 7 -6 14 9 34 31 44 48 16 27 17 39 8 67 -12 42 -2 44 21
5 19 -32 23 -102 7 -132 -16 -28 6 -24 25 5 9 13 17 42 18 65 1 23 2 41 4 41
7 0 33 -61 33 -78 0 -11 -9 -31 -21 -46 -24 -31 -14 -34 20 -6 19 16 24 33 29
85 2 35 8 62 12 60 13 -8 18 -58 9 -83 -14 -35 11 -23 35 17 16 28 17 40 9 77
-6 24 -7 44 -2 44 11 0 29 -68 29 -112 0 -24 5 -38 13 -38 9 0 12 26 12 99 0
99 7 121 19 57 4 -22 20 -46 42 -65 40 -36 41 -36 41 -16 0 8 -2 13 -5 10 -8
-7 -38 38 -46 68 -4 15 0 54 10 89 15 59 15 90 -1 148 -5 19 -1 17 14 -10 27
-47 27 -123 1 -173 -27 -50 -25 -58 5 -22 13 17 24 38 25 48 0 10 4 16 9 12 5
-3 13 0 17 6 4 7 3 9 -3 6 -5 -4 -8 17 -5 53 2 32 -1 73 -7 91 -6 18 -9 34 -6
37 7 7 26 -46 35 -98 l8 -45 1 63 c1 63 -13 106 -47 145 -8 9 -11 17 -5 17 17
0 50 -44 63 -82 6 -21 13 -38 16 -38 2 0 4 20 4 45 0 36 -6 51 -32 80 -17 20
-25 35 -17 34 20 -4 108 11 113 19 2 4 -12 6 -33 4 -21 -2 -57 2 -82 9 l-44
13 52 6 c28 3 55 9 60 14 4 5 -2 5 -15 1 -27 -8 -119 12 -129 28 -4 7 0 8 13
3 10 -4 35 -9 54 -12 l35 -4 -38 10 c-52 14 -77 28 -77 45 0 11 5 12 26 5 14
-6 35 -10 47 -10 18 1 17 3 -9 14 -48 21 -103 75 -130 127 -31 62 -30 68 2 30
14 -18 36 -37 48 -43 12 -7 3 8 -22 36 -58 63 -100 157 -118 261 -18 104 -14
138 8 75 9 -25 17 -38 17 -29 1 9 -8 42 -19 75 l-20 59 37 -41 c21 -23 47 -47
58 -55 14 -9 12 -4 -6 16 -34 39 -99 162 -99 189 -1 32 -34 98 -63 125 -15 13
-24 27 -22 32 3 4 -5 15 -17 23 -12 9 -18 16 -12 16 5 0 18 -6 29 -14 11 -7
24 -14 28 -14 5 0 12 -4 15 -8 4 -4 1 -4 -6 1 -11 6 -12 3 -3 -14 14 -25 23
-28 15 -3 -4 11 1 9 16 -8 l21 -25 -15 31 c-16 33 -70 84 -88 84 -6 0 -9 3 -6
6 8 7 46 -13 77 -40 l24 -21 -12 23 c-7 13 -10 30 -7 37 2 7 -5 21 -17 32
l-22 18 19 -22 c24 -29 22 -29 -38 2 -27 14 -57 25 -65 26 -9 1 -5 5 9 9 24 8
24 8 -7 9 -17 1 -34 5 -38 10 -7 13 27 23 82 24 l45 0 -23 19 c-13 10 -41 21
-61 24 -21 4 -35 10 -32 15 3 5 -3 9 -13 9 -15 0 -16 2 -3 10 13 8 12 10 -2
10 -25 0 -22 19 5 30 20 9 19 9 -8 7 -27 -2 -30 0 -27 27 l3 28 -27 -21 c-35
-27 -52 -27 -28 1 10 12 13 18 6 14 -21 -12 -62 3 -90 33 -94 99 -202 175
-217 150z m42 -117 c-35 -36 -35 -49 1 -24 53 37 56 33 7 -11 -27 -25 -53 -44
-56 -41 -4 2 -16 -11 -27 -29 -22 -38 -59 -49 -40 -13 16 31 21 34 14 9 -11
-35 1 -27 23 15 20 38 88 122 99 122 3 0 -6 -13 -21 -28z m41 -46 c-50 -46
-84 -61 -95 -43 -3 7 -2 9 2 4 5 -4 18 1 29 12 26 23 97 71 105 71 3 -1 -15
-20 -41 -44z m36 2 c-5 -8 -2 -9 10 -5 10 4 15 3 11 -3 -3 -6 -2 -10 4 -10 21
0 -2 -29 -30 -39 -21 -7 -28 -7 -23 1 5 7 -2 9 -22 5 -29 -5 -29 -5 10 29 41
36 52 42 40 22z m58 -23 c0 -5 -5 -11 -10 -13 -5 -1 -9 4 -9 13 0 9 4 14 9 13
5 -2 10 -8 10 -13z m-2 -36 c-12 -9 -11 -10 6 -6 13 3 25 -3 33 -14 10 -17 8
-19 -25 -19 -19 0 -33 4 -30 9 4 5 -5 8 -19 6 -33 -3 -32 11 3 23 36 14 50 14
32 1z m-245 -58 c-9 -8 -36 -10 -30 -2 2 4 11 8 20 8 8 0 13 -3 10 -6z m280 4
c-23 -8 -83 -10 -79 -3 3 4 24 8 47 7 23 0 38 -2 32 -4z m9 -21 c21 -8 21 -24
0 -24 -8 0 -13 4 -10 9 4 5 0 12 -6 14 -7 3 -10 6 -6 6 3 1 13 -2 22 -5z
m-165 -52 c-19 -21 -37 -37 -41 -35 -4 2 -12 -7 -19 -19 -12 -22 -11 -22 6 -8
18 14 18 13 -1 -20 -10 -19 -23 -38 -27 -41 -5 -3 -8 -10 -7 -15 3 -19 -9 -44
-20 -44 -9 0 -11 11 -7 38 l6 37 -20 -25 -21 -25 6 40 c6 45 32 84 67 102 27
14 102 50 108 52 2 1 -12 -16 -30 -37z m61 19 c-12 -24 -29 -35 -38 -26 -4 4
4 15 17 26 29 24 34 24 21 0z m85 -32 c25 -11 44 -23 41 -26 -3 -4 -1 -12 6
-20 6 -7 8 -16 4 -20 -3 -3 1 -15 11 -25 23 -26 0 -23 -47 7 -22 14 -45 25
-52 25 -7 1 -2 10 12 22 l25 21 -24 -8 c-16 -5 -21 -4 -17 4 4 6 -4 13 -19 17
-13 3 -22 10 -19 15 8 14 27 11 79 -12z m98 -187 c28 -26 37 -49 15 -36 -7 4
-6 -1 3 -12 18 -20 26 -134 11 -134 -5 0 -17 18 -27 40 -10 22 -24 45 -31 51
-20 16 -6 33 14 17 10 -6 -2 8 -25 33 -46 48 -54 65 -25 55 14 -5 13 -3 -3 10
-19 16 -19 16 10 9 17 -3 42 -18 58 -33z m213 -76 c15 4 23 -2 32 -21 13 -28
16 -55 6 -55 -12 0 -92 78 -86 84 3 3 10 2 17 -4 6 -5 20 -7 31 -4z m-22 -65
c23 -20 37 -54 43 -106 5 -35 4 -38 -11 -26 -9 7 -16 21 -16 30 0 9 -4 21 -9
27 -6 5 -19 31 -30 57 -21 48 -16 51 23 18z m-410 0 c8 -12 -21 -34 -34 -26
-8 5 -8 11 1 21 13 16 25 18 33 5z m235 -80 c0 -14 -1 -14 -6 -1 -3 8 -10 24
-15 35 -9 20 -9 20 6 1 9 -11 16 -27 15 -35z m204 -75 c14 -26 21 -44 15 -40
-6 4 -9 -14 -6 -54 2 -39 0 -58 -6 -52 -34 34 -34 -18 -1 -54 14 -15 25 -36
25 -47 0 -20 0 -20 -30 1 -35 25 -38 19 -9 -21 11 -16 18 -33 14 -39 -3 -5 -1
-19 5 -31 7 -12 9 -36 5 -56 l-6 -36 -24 36 c-14 19 -28 37 -32 39 -5 3 -1 3
7 1 9 -2 6 5 -7 16 -23 20 -32 48 -11 35 11 -7 9 18 -7 106 l-7 35 21 -25 21
-25 -20 48 c-22 52 -28 95 -10 67 8 -12 10 -10 11 10 1 14 1 31 0 39 -2 7 3
10 9 6 12 -7 3 42 -10 60 -5 6 -10 25 -13 43 l-5 33 22 -24 c13 -14 35 -46 49
-71z m-324 1 c-11 -39 -41 -67 -74 -67 -16 0 -14 3 11 19 17 10 39 35 48 56
22 45 29 41 15 -8z m3 -56 c-10 -14 -30 -27 -43 -29 l-24 -3 25 13 c14 7 32
27 40 45 10 20 16 26 18 16 2 -9 -5 -27 -16 -42z m38 -161 c13 -9 13 -10 0
-10 -8 0 -22 5 -30 10 -13 9 -13 10 0 10 8 0 22 -5 30 -10z m3 -43 c10 -4 16
-11 12 -17 -6 -10 -55 7 -55 20 0 12 14 20 19 12 3 -5 14 -11 24 -15z m211 7
c3 -8 2 -12 -4 -9 -6 3 -10 10 -10 16 0 14 7 11 14 -7z m68 -176 c27 -25 28
-29 15 -48 -13 -18 -15 -19 -21 -5 -3 9 -11 13 -17 9 -7 -4 -9 -3 -6 3 4 6 0
16 -8 23 -8 7 -12 16 -10 21 3 4 -3 12 -12 18 -16 9 -15 10 6 8 13 -1 37 -14
53 -29z m-47 -28 c3 -6 -1 -7 -9 -4 -18 7 -21 14 -7 14 6 0 13 -4 16 -10z m-5
-97 c19 -12 31 -23 26 -23 -4 0 7 -17 25 -37 29 -34 31 -38 14 -42 -10 -2 -24
4 -30 12 -7 10 -20 14 -33 10 -16 -4 -30 4 -55 31 -32 34 -37 51 -8 24 11 -11
13 -10 8 5 -6 15 -3 16 13 7 10 -5 22 -15 25 -20 3 -5 16 -15 28 -22 21 -11
21 -10 7 7 -13 17 -52 53 -99 94 -18 15 27 -11 79 -46z m-45 -143 c21 -22 37
-40 34 -40 -3 0 -23 18 -44 40 -21 22 -37 40 -34 40 3 0 23 -18 44 -40z m16
23 c13 -16 12 -17 -3 -4 -10 7 -18 15 -18 17 0 8 8 3 21 -13z m-123 -138 c-3
-3 -9 2 -12 12 -6 14 -5 15 5 6 7 -7 10 -15 7 -18z m102 -30 c0 -5 -5 -3 -10
5 -5 8 -10 20 -10 25 0 6 5 3 10 -5 5 -8 10 -19 10 -25z m40 -10 c10 -12 10
-15 -2 -15 -8 0 -15 7 -15 15 0 8 1 15 2 15 2 0 8 -7 15 -15z"/>
<path d="M4075 5936 c-15 -11 -15 -14 -3 -18 7 -3 22 0 31 7 15 10 15 14 3 18
-8 3 -22 0 -31 -7z"/>
<path d="M3928 5133 c7 -3 16 -2 19 1 4 3 -2 6 -13 5 -11 0 -14 -3 -6 -6z"/>
<path d="M3771 4834 c0 -11 3 -14 6 -6 3 7 2 16 -1 19 -3 4 -6 -2 -5 -13z"/>
<path d="M4919 4663 c-13 -16 -12 -17 4 -4 16 13 21 21 13 21 -2 0 -10 -8 -17
-17z"/>
<path d="M4130 4551 c0 -5 16 -36 35 -68 40 -67 47 -56 10 17 -24 47 -45 71
-45 51z"/>
<path d="M3971 4448 c-1 -35 -6 -41 -68 -82 -101 -67 -228 -106 -380 -117 -68
-4 -140 -11 -159 -15 -19 -3 -55 -3 -82 1 l-47 7 30 13 30 14 -35 -7 c-72 -14
-173 -7 -215 15 -23 12 -59 25 -80 28 -22 4 -51 14 -65 21 -22 12 -23 13 -5
14 16 0 15 3 -9 15 -16 9 -35 23 -42 33 -7 9 -14 12 -14 6 0 -6 23 -42 51 -79
28 -38 55 -78 59 -89 5 -12 9 -15 9 -8 1 7 -6 27 -15 45 -14 29 -12 28 25 -13
23 -25 41 -39 41 -31 0 10 3 11 13 2 8 -6 16 -8 20 -5 3 3 8 -4 12 -15 3 -12
10 -19 14 -16 5 2 13 -12 19 -33 6 -21 18 -46 27 -57 13 -18 13 -16 0 17 -8
21 -15 50 -15 65 0 26 1 26 15 7 14 -19 14 -18 15 3 0 26 30 21 30 -6 1 -13 3
-13 16 4 16 20 16 20 27 1 7 -10 23 -31 35 -45 l24 -26 -21 29 c-12 16 -21 36
-21 45 0 11 6 7 17 -11 19 -30 53 -48 86 -47 15 1 11 4 -13 10 -32 9 -76 46
-67 56 3 2 26 -1 52 -7 36 -8 50 -8 55 0 4 7 24 13 44 15 20 2 34 0 31 -5 -3
-5 -13 -7 -23 -4 -16 5 -16 5 1 -6 16 -10 26 -37 10 -27 -5 3 -8 -9 -9 -26
l-1 -32 15 35 15 35 7 -37 c8 -44 26 -69 45 -62 7 3 16 1 20 -5 3 -6 14 -11
23 -11 10 0 5 6 -13 16 -16 8 -35 21 -42 27 -17 17 -28 67 -14 67 6 0 11 -5
11 -10 0 -14 50 -60 64 -60 6 0 4 5 -4 10 -8 5 -15 15 -15 22 -1 7 -6 12 -13
10 -7 -1 -12 2 -12 7 0 5 -3 17 -7 27 -5 13 6 9 38 -14 32 -23 61 -34 99 -39
71 -8 60 5 -15 17 -58 10 -95 31 -95 57 0 12 4 11 22 -1 29 -21 44 -20 27 1
-13 15 -12 15 11 3 13 -7 47 -15 75 -17 27 -2 60 -5 72 -8 12 -3 24 -1 27 4 3
5 -26 12 -64 15 -38 4 -76 13 -84 21 -7 8 -16 12 -20 10 -3 -3 -2 0 4 7 7 9
16 8 35 -2 21 -11 38 -10 127 13 115 29 198 46 198 41 0 -2 -19 -17 -42 -34
-53 -39 -39 -39 24 0 56 35 67 37 47 12 -8 -10 -5 -8 7 4 l21 21 12 -33 c8
-21 24 -40 44 -50 l32 -16 -37 39 c-21 21 -38 47 -38 58 0 17 2 16 27 -6 15
-13 21 -16 14 -6 -7 9 -10 17 -6 17 5 0 0 9 -10 20 -24 27 -14 68 17 66 17 -1
22 4 20 17 -2 11 3 26 11 35 26 31 30 47 6 25 -48 -43 -89 -39 -102 12 -3 12
-5 4 -6 -17z"/>
<path d="M4020 4350 c0 -5 10 -15 23 -21 22 -12 22 -12 3 10 -21 23 -26 26
-26 11z"/>
<path d="M2700 4260 c6 -11 13 -20 16 -20 2 0 0 9 -6 20 -6 11 -13 20 -16 20
-2 0 0 -9 6 -20z"/>
<path d="M3954 4214 c-11 -29 -42 -67 -72 -86 -41 -27 -17 -21 27 6 36 23 71
79 58 93 -4 3 -10 -3 -13 -13z"/>
<path d="M4084 4178 c1 -9 14 -29 29 -44 25 -24 29 -32 26 -50 -1 -10 23 -24
41 -24 9 0 7 5 -8 16 -12 8 -22 21 -22 27 -1 7 -16 30 -35 52 -19 22 -33 32
-31 23z"/>
<path d="M2446 4122 c-5 -18 -5 -36 -2 -39 7 -7 19 43 13 59 -2 7 -7 -2 -11
-20z"/>
<path d="M2763 4133 c9 -2 23 -2 30 0 6 3 -1 5 -18 5 -16 0 -22 -2 -12 -5z"/>
<path d="M2550 4120 c0 -5 5 -10 11 -10 5 0 7 5 4 10 -3 6 -8 10 -11 10 -2 0
-4 -4 -4 -10z"/>
<path d="M2880 4109 c-22 -18 -22 -19 -3 -10 12 6 25 16 28 21 9 15 3 12 -25
-11z"/>
<path d="M3230 4095 c13 -14 26 -25 28 -25 3 0 -5 11 -18 25 -13 14 -26 25
-28 25 -3 0 5 -11 18 -25z"/>
<path d="M2925 4085 c-16 -8 -23 -14 -14 -15 8 0 24 7 35 15 23 18 18 18 -21
0z"/>
<path d="M3370 4074 c-6 -14 -9 -42 -9 -62 1 -35 2 -34 9 12 5 26 11 54 14 62
3 8 3 14 0 14 -2 0 -9 -12 -14 -26z"/>
<path d="M3120 4066 c0 -2 8 -10 18 -17 15 -13 16 -12 3 4 -13 16 -21 21 -21
13z"/>
<path d="M3217 4049 c12 -12 24 -21 27 -18 2 2 -8 13 -22 23 l-27 19 22 -24z"/>
<path d="M3410 4063 c0 -14 20 -30 53 -42 18 -7 26 -7 22 -1 -3 6 -11 10 -17
10 -7 0 -22 10 -35 22 -13 12 -23 17 -23 11z"/>
<path d="M2501 4015 c15 -16 31 -39 37 -50 6 -11 12 -14 12 -7 0 7 -17 30 -37
50 -21 21 -26 24 -12 7z"/>
<path d="M3039 4033 c-13 -16 -12 -17 4 -4 16 13 21 21 13 21 -2 0 -10 -8 -17
-17z"/>
<path d="M4159 4031 c13 -12 28 -21 35 -21 12 0 -5 14 -39 31 -16 8 -15 6 4
-10z"/>
<path d="M2379 4023 c-13 -16 -12 -17 4 -4 16 13 21 21 13 21 -2 0 -10 -8 -17
-17z"/>
<path d="M2745 3994 c-6 -2 -37 -8 -70 -13 -56 -8 -57 -9 -17 -10 26 -1 41 -5
37 -11 -5 -8 54 21 74 37 6 4 -12 2 -24 -3z"/>
<path d="M2286 3981 c-4 -5 -2 -12 3 -15 5 -4 12 -2 15 3 4 5 2 12 -3 15 -5 4
-12 2 -15 -3z"/>
<path d="M3557 3959 c12 -12 24 -21 27 -18 2 2 -8 13 -22 23 l-27 19 22 -24z"/>
<path d="M3490 3946 c0 -2 8 -10 18 -17 15 -13 16 -12 3 4 -13 16 -21 21 -21
13z"/>
<path d="M4121 3908 c-2 -74 -55 -188 -87 -188 -13 0 -12 4 1 30 8 16 15 37
15 47 0 12 -5 8 -16 -12 -8 -16 -46 -61 -84 -100 -80 -82 -113 -142 -114 -205
0 -69 24 -111 95 -165 35 -27 56 -40 47 -29 -22 25 -23 34 -4 34 7 0 17 15 20
33 6 28 8 30 18 13 7 -13 7 -25 -1 -43 -17 -36 -13 -41 10 -13 17 20 20 21 14
5 -4 -11 -9 -31 -10 -45 -3 -24 -3 -24 24 8 33 38 51 91 52 153 1 24 3 36 6
26 2 -9 9 -14 15 -11 13 9 0 -72 -18 -107 -11 -22 -11 -26 2 -26 17 0 40 39
54 94 8 32 9 28 4 -25 -3 -35 -9 -75 -14 -88 -9 -22 -8 -23 15 -12 13 6 24 14
23 17 -2 21 4 31 14 25 8 -5 9 -2 5 10 -4 10 -3 15 3 11 12 -7 37 41 54 107
l15 53 0 -40 c0 -22 -8 -60 -19 -84 -12 -26 -18 -53 -14 -65 4 -12 3 -18 -1
-14 -8 7 -75 -115 -75 -137 0 -8 -4 -15 -10 -15 -5 0 -10 -5 -10 -11 0 -6 -25
-63 -56 -125 -51 -102 -56 -119 -51 -161 3 -26 11 -52 19 -57 8 -6 18 -35 21
-64 3 -29 16 -71 29 -93 19 -34 23 -37 29 -21 4 11 21 22 39 26 62 12 66 8 25
-34 -65 -66 -107 -91 -166 -96 -65 -5 -72 -11 -23 -20 25 -5 52 -2 79 8 l42
16 -7 -37 c-9 -49 -25 -76 -59 -100 l-29 -21 -16 23 c-16 22 -16 22 -5 -5 7
-15 9 -42 4 -64 l-7 -38 -15 32 c-19 38 -28 37 -13 -2 5 -15 10 -38 10 -51 0
-23 -1 -24 -35 -9 -19 7 -52 14 -73 14 -48 0 -142 -27 -142 -41 0 -6 -7 -8
-16 -5 -9 3 -12 2 -9 -5 6 -9 23 -7 63 9 16 6 -28 -86 -66 -138 l-25 -35 30
28 c16 15 43 55 59 87 30 61 49 79 67 61 7 -7 6 -25 -2 -53 -10 -33 -34 -62
-102 -128 -80 -76 -89 -89 -89 -120 l1 -35 12 26 c13 29 52 74 112 129 l38 35
-26 -40 c-14 -22 -28 -58 -31 -80 -6 -43 -2 -37 30 40 13 32 17 37 23 22 5
-14 10 -4 20 35 8 29 20 64 27 78 12 24 13 24 7 -11 -3 -23 2 -57 15 -95 12
-32 23 -68 25 -79 4 -15 5 -13 6 7 0 15 -8 50 -19 77 -12 33 -17 62 -13 81 9
47 18 43 19 -9 2 -85 19 -86 20 -1 1 52 6 85 17 99 20 29 31 11 23 -37 -6 -36
-6 -36 8 -12 l14 24 4 -24 c3 -21 6 -19 18 19 8 24 16 39 18 32 8 -25 22 3 23
47 l2 47 12 -60 13 -60 1 68 1 67 31 -27 c17 -16 36 -27 41 -25 6 2 8 -4 4
-13 -3 -9 -2 -13 4 -10 5 3 14 -13 21 -35 7 -22 14 -38 16 -36 9 8 -18 85 -39
111 l-21 27 31 -16 c18 -9 35 -16 39 -15 5 1 13 -8 19 -20 l12 -22 21 27 c12
15 21 21 21 13 0 -11 2 -11 10 1 8 12 10 12 10 1 0 -11 4 -10 19 3 17 16 19
16 26 -6 6 -20 8 -17 14 19 4 23 13 49 21 58 13 16 15 16 27 -1 12 -16 13 -16
13 -1 0 9 6 17 14 17 8 0 16 7 20 15 8 21 26 19 27 -2 1 -10 6 2 11 27 8 33
12 40 17 27 6 -15 12 -9 34 30 14 26 27 41 27 32 0 -10 36 20 89 72 48 49 94
89 100 89 7 0 9 -5 5 -12 -4 -7 -3 -8 5 -4 6 4 9 11 6 16 -3 5 9 16 27 24 29
14 30 15 6 10 -16 -4 -28 -4 -28 0 0 11 64 38 124 51 41 9 51 14 31 14 -45 2
-11 20 40 22 38 1 39 2 10 9 -41 10 -17 18 70 24 99 7 155 17 155 27 0 5 3 8
8 8 4 -1 16 -1 26 0 18 1 18 2 3 19 -16 17 -14 18 21 14 35 -3 36 -3 13 10
-52 28 -34 35 55 22 47 -7 93 -15 101 -18 8 -3 11 -2 8 3 -8 14 -104 48 -185
67 -74 17 -100 33 -53 35 15 0 46 6 68 13 39 13 40 13 15 23 -14 6 -34 13 -45
16 -11 4 -1 4 23 1 28 -3 41 -1 37 6 -3 5 -18 10 -33 10 -15 0 -45 4 -67 8
l-40 7 50 5 50 5 -31 17 c-17 9 -76 28 -130 42 -55 14 -117 32 -139 40 l-40
16 40 -5 c37 -5 35 -3 -32 29 -40 19 -73 38 -73 41 0 3 6 3 13 0 6 -3 -19 22
-58 57 -38 34 -104 96 -145 136 -41 40 -119 110 -172 155 -53 45 -95 83 -93
85 2 2 25 -6 50 -17 64 -28 48 -11 -80 92 -55 44 -117 96 -138 116 l-38 36 20
-45 c11 -25 21 -53 21 -63 0 -17 -1 -17 -16 -3 -8 9 -21 16 -28 16 -14 0 -32
23 -56 76 l-18 39 -1 -37z m54 -208 c-9 -41 -17 -33 -9 9 4 17 9 30 11 27 3
-2 2 -19 -2 -36z m-38 -12 c-3 -8 -6 -5 -6 6 -1 11 2 17 5 13 3 -3 4 -12 1
-19z m20 -210 c-3 -7 -5 -2 -5 12 0 14 2 19 5 13 2 -7 2 -19 0 -25z m60 -100
c-3 -8 -6 -5 -6 6 -1 11 2 17 5 13 3 -3 4 -12 1 -19z m-100 -410 c-3 -8 -6 -5
-6 6 -1 11 2 17 5 13 3 -3 4 -12 1 -19z m-7 -98 c-6 -41 -13 -76 -17 -79 -7
-7 6 140 14 152 12 19 13 -4 3 -73z"/>
<path d="M3388 3883 c7 -3 16 -2 19 1 4 3 -2 6 -13 5 -11 0 -14 -3 -6 -6z"/>
<path d="M2176 3849 c-22 -5 -42 -12 -45 -16 -9 -9 73 8 84 18 5 5 7 9 5 8 -3
-1 -23 -5 -44 -10z"/>
<path d="M2169 3773 c-13 -16 -12 -17 4 -4 9 7 17 15 17 17 0 8 -8 3 -21 -13z"/>
<path d="M2869 3743 c-13 -16 -12 -17 4 -4 16 13 21 21 13 21 -2 0 -10 -8 -17
-17z"/>
<path d="M2185 3704 c-9 -15 -12 -23 -6 -20 11 7 35 46 28 46 -3 0 -12 -12
-22 -26z"/>
<path d="M2139 3433 c-13 -16 -12 -17 4 -4 9 7 17 15 17 17 0 8 -8 3 -21 -13z"/>
<path d="M2175 3304 c-10 -23 -14 -58 -6 -47 4 4 17 21 31 38 14 16 18 24 8
17 -13 -10 -17 -10 -20 0 -3 7 -7 5 -13 -8z"/>
<path d="M2251 3289 c-26 -42 -26 -82 -2 -134 23 -48 27 -33 6 19 -16 39 -12
75 12 114 8 13 12 26 9 29 -3 3 -14 -10 -25 -28z"/>
<path d="M2202 3210 c0 -19 2 -27 5 -17 2 9 2 25 0 35 -3 9 -5 1 -5 -18z"/>
<path d="M2351 3184 c0 -11 3 -14 6 -6 3 7 2 16 -1 19 -3 4 -6 -2 -5 -13z"/>
<path d="M3226 3170 c3 -14 10 -32 15 -40 7 -13 8 -13 8 0 0 8 -6 26 -15 40
l-15 25 7 -25z"/>
<path d="M2320 3161 c0 -5 5 -13 10 -16 6 -3 10 -2 10 4 0 5 -4 13 -10 16 -5
3 -10 2 -10 -4z"/>
<path d="M2300 3148 c0 -24 12 -58 20 -58 18 0 18 32 0 50 -12 12 -20 15 -20
8z"/>
<path d="M2418 3143 c6 -2 18 -2 25 0 6 3 1 5 -13 5 -14 0 -19 -2 -12 -5z"/>
<path d="M3153 3105 c14 -22 28 -55 32 -74 6 -29 5 -33 -9 -28 -14 6 -15 3 -6
-13 6 -11 12 -20 14 -20 7 0 56 88 56 99 0 6 -6 8 -14 5 -8 -3 -17 2 -20 13
-3 10 -4 6 -2 -9 2 -16 2 -28 0 -28 -8 0 -31 56 -28 68 1 7 0 8 -3 2 -3 -7
-12 -5 -26 7 -16 15 -16 11 6 -22z"/>
<path d="M2380 3101 c0 -5 17 -7 38 -4 51 7 53 13 4 13 -23 0 -42 -4 -42 -9z"/>
<path d="M3210 2975 c-18 -19 -37 -32 -41 -29 -5 3 -6 -1 -3 -9 3 -8 -1 -21
-9 -28 -8 -7 -12 -21 -9 -31 5 -20 17 -23 27 -8 9 14 26 12 23 -2 -2 -7 -12
-21 -23 -31 -20 -18 -19 -18 8 -1 15 9 25 19 22 22 -3 3 3 15 12 26 17 20 17
20 1 7 -10 -7 -18 -9 -18 -3 0 5 11 17 24 25 13 9 26 26 29 38 5 17 -6 11 -44
-27 -62 -61 -64 -44 -3 30 51 64 53 72 4 21z"/>
<path d="M2444 2968 c-6 -9 -13 -39 -20 -78 l-4 -25 12 25 c6 14 20 39 30 56
15 26 15 31 2 31 -8 0 -17 -4 -20 -9z m7 -21 c-10 -9 -11 -8 -5 6 3 10 9 15
12 12 3 -3 0 -11 -7 -18z"/>
<path d="M2310 2919 c-7 -11 -10 -23 -7 -25 2 -2 9 7 15 21 14 30 7 33 -8 4z"/>
<path d="M2450 2889 c-6 -11 -10 -30 -8 -42 2 -16 6 -11 15 21 12 46 10 53 -7
21z"/>
<path d="M2291 2864 c0 -11 3 -14 6 -6 3 7 2 16 -1 19 -3 4 -6 -2 -5 -13z"/>
<path d="M2557 2866 c-4 -9 -15 -13 -26 -11 -11 2 -24 -1 -27 -7 -4 -7 -2 -8
4 -4 16 10 14 -5 -3 -28 -8 -11 -15 -26 -15 -34 0 -12 3 -12 16 -1 21 17 67
89 61 95 -3 3 -7 -2 -10 -10z"/>
<path d="M5380 2857 c17 -16 74 -37 99 -37 24 1 -12 20 -68 37 -39 11 -44 11
-31 0z"/>
<path d="M2326 2815 c3 -27 7 -62 9 -77 5 -28 -9 -48 -18 -26 -3 7 -6 3 -6 -9
-1 -27 14 -30 25 -5 9 22 5 132 -7 152 -5 9 -7 -4 -3 -35z"/>
<path d="M2595 2813 c-15 -27 -24 -37 -21 -24 3 17 2 21 -6 13 -17 -17 -24
-116 -8 -110 10 3 72 168 63 168 -1 0 -14 -21 -28 -47z"/>
<path d="M2471 2834 c0 -11 3 -14 6 -6 3 7 2 16 -1 19 -3 4 -6 -2 -5 -13z"/>
<path d="M2654 2750 c-31 -47 -41 -52 -19 -10 9 17 13 30 10 30 -13 0 -45 -88
-45 -125 0 -58 16 -76 24 -28 3 21 16 58 28 83 12 25 20 49 19 54 -1 4 4 14
10 22 6 8 9 14 5 14 -3 0 -18 -18 -32 -40z"/>
<path d="M3141 2783 c-2 -20 16 -24 30 -5 13 15 12 16 -3 4 -13 -10 -17 -10
-21 0 -4 9 -6 9 -6 1z"/>
<path d="M3147 2730 c-4 -14 -6 -36 -6 -50 1 -22 2 -20 10 8 6 19 9 41 7 50
-3 12 -6 10 -11 -8z"/>
<path d="M5510 2736 c0 -2 8 -10 18 -17 15 -13 16 -12 3 4 -13 16 -21 21 -21
13z"/>
<path d="M2692 2703 c-32 -47 -44 -96 -35 -155 l7 -53 8 73 c4 40 16 93 27
118 23 51 21 56 -7 17z"/>
<path d="M3074 2676 c3 -34 11 -65 21 -76 16 -17 14 -22 -19 -74 -19 -30 -41
-76 -49 -102 l-13 -46 -27 32 c-15 17 -27 36 -27 42 0 6 -3 9 -6 6 -7 -8 13
-47 38 -74 13 -14 16 -24 9 -29 -6 -3 -11 -16 -11 -28 -1 -12 -7 -32 -14 -45
l-12 -23 -37 44 c-38 47 -46 63 -24 51 7 -4 9 -3 4 2 -5 5 -14 9 -19 9 -6 0
-13 6 -16 14 -3 9 0 11 9 5 8 -4 4 5 -9 20 -12 16 -22 36 -22 44 0 12 -3 13
-11 5 -16 -16 4 -72 42 -119 31 -39 36 -49 18 -38 -21 13 -89 127 -95 160 -3
19 -11 37 -16 40 -6 4 -8 -2 -4 -15 18 -62 17 -65 -5 -31 -29 45 -58 121 -61
160 -3 34 -14 39 -23 11 -7 -24 15 -117 25 -101 8 12 45 -64 37 -77 -10 -16
14 -138 33 -170 11 -19 22 -49 24 -68 5 -37 -2 -77 -13 -71 -3 2 -7 -8 -7 -22
-6 -97 -18 -192 -24 -185 -4 4 -17 42 -30 83 -24 80 -44 116 -31 57 5 -19 11
-39 15 -45 7 -11 34 -162 29 -162 -1 0 -17 9 -35 20 -18 11 -36 20 -40 20 -7
0 -1 -47 8 -62 3 -4 0 -8 -6 -8 -7 0 -9 -13 -5 -37 4 -28 3 -33 -4 -18 -7 15
-10 16 -11 5 -2 -8 -2 -18 -2 -22 1 -3 -5 -12 -13 -18 -8 -7 -15 -18 -15 -26
0 -21 -32 -84 -40 -79 -4 3 -10 -8 -13 -24 -3 -15 -17 -42 -32 -59 -14 -17
-21 -32 -15 -34 5 -1 6 -9 2 -15 -10 -16 -97 -33 -164 -33 -47 0 -50 1 -45 23
3 12 8 40 12 62 l6 40 -21 -45 c-31 -65 -56 -88 -106 -96 -119 -17 -186 70
-139 183 8 20 13 38 11 40 -2 2 -16 -28 -31 -66 -28 -74 -42 -92 -55 -71 -4 6
-11 11 -16 11 -5 -1 -10 16 -12 36 -5 54 -18 61 -32 18 -9 -27 -15 -33 -24
-26 -7 6 -16 8 -19 4 -4 -3 -7 15 -7 41 0 115 116 235 244 252 28 4 58 17 78
34 28 23 33 35 34 71 0 24 4 71 7 104 l7 60 -15 -45 c-8 -25 -15 -71 -15 -102
0 -49 -3 -59 -26 -77 -15 -12 -45 -26 -68 -31 -81 -21 -125 -42 -171 -82 -58
-52 -86 -107 -92 -183 -4 -51 -2 -64 17 -87 12 -16 31 -28 43 -28 12 -1 33 -7
47 -15 25 -14 25 -14 -15 -15 -48 0 -76 -14 -50 -24 49 -18 243 -37 430 -42
l210 -5 51 -34 c28 -19 55 -35 61 -35 6 0 13 -5 15 -10 2 -6 37 -20 78 -32 64
-19 100 -22 240 -23 195 0 552 20 577 33 10 5 48 15 86 21 37 6 80 17 95 23
63 25 702 23 687 -2 -3 -5 14 -10 38 -13 23 -2 89 -10 147 -17 87 -11 135 -11
270 -1 275 22 353 35 407 68 51 31 160 73 192 73 10 0 49 12 87 26 67 25 80
26 399 35 351 9 381 12 531 56 121 35 105 43 -24 12 -85 -20 -123 -23 -299
-24 -110 0 -199 -4 -196 -9 3 -4 -4 -5 -16 -1 -11 3 -107 7 -213 8 -106 0
-181 2 -165 5 39 5 33 22 -8 22 -21 0 -35 -5 -35 -12 -1 -7 -11 0 -25 16 -20
26 -26 28 -40 16 -9 -7 -15 -9 -14 -4 1 5 -3 20 -8 35 -6 14 -9 38 -6 55 9 57
14 61 33 24 11 -19 20 -33 20 -30 1 3 3 25 6 49 2 25 7 47 9 50 3 2 19 -5 35
-17 25 -19 29 -20 23 -5 -3 10 -10 24 -16 31 -7 8 -5 12 7 12 15 0 14 3 -4 22
-26 28 -25 38 3 39 18 0 16 3 -11 12 -26 10 -30 15 -20 25 6 6 28 13 47 14
l36 1 -33 4 c-27 4 -32 8 -26 21 43 99 57 161 57 262 -1 64 -7 123 -16 152
-12 39 -12 46 -1 41 8 -3 14 -10 14 -16 0 -6 3 -8 6 -5 10 10 -39 100 -73 134
-42 43 -126 69 -94 30 11 -13 9 -14 -16 -7 -15 5 -41 14 -57 20 -16 6 -31 10
-33 8 -2 -2 3 -31 12 -63 10 -39 13 -77 9 -112 -7 -55 10 -132 28 -132 5 0 6
-6 2 -12 -5 -9 -4 -10 3 -3 19 18 32 79 34 150 2 67 3 69 15 40 22 -52 17
-146 -13 -227 -26 -73 -49 -117 -66 -129 -13 -9 -36 -103 -32 -126 18 -88 20
-88 65 -10 l30 52 1 -55 1 -55 16 45 c27 74 26 16 -2 -78 -29 -99 -73 -175
-139 -239 l-49 -48 16 38 c10 26 12 45 6 60 -5 12 -9 16 -9 9 -1 -7 -5 -11
-10 -8 -12 8 -21 -29 -21 -87 0 -75 -43 -145 -100 -162 -22 -7 -23 -6 -11 9 8
9 11 19 7 23 -3 3 -6 2 -6 -4 0 -5 -18 -10 -40 -11 -41 -2 -49 5 -29 25 9 9 9
19 -1 42 -7 18 -10 45 -6 66 4 22 3 35 -4 35 -5 0 -10 -10 -10 -23 0 -26 -28
-116 -42 -133 -11 -15 -67 -24 -74 -12 -3 5 0 15 6 23 7 9 8 15 2 15 -10 0
-26 -29 -24 -42 1 -4 -14 -15 -34 -24 -28 -13 -40 -14 -60 -6 -15 7 -24 8 -24
2 0 -6 5 -10 12 -10 6 0 9 -2 6 -5 -8 -8 -39 6 -33 15 3 5 -3 11 -13 14 -30
10 -43 65 -37 158 5 60 4 79 -4 68 -6 -8 -14 -36 -17 -62 -11 -78 -64 -142
-64 -77 0 12 -5 19 -12 16 -7 -2 -13 -14 -12 -25 0 -12 -2 -20 -4 -17 -3 3
-11 0 -18 -6 -21 -18 -37 0 -30 35 4 22 3 27 -4 16 -5 -8 -10 -26 -10 -40 0
-20 -2 -22 -10 -10 -17 26 -11 74 15 115 15 25 24 55 25 81 0 29 6 47 21 60
12 10 30 35 40 55 10 21 34 47 54 59 19 12 35 26 35 31 0 14 -12 11 -47 -11
l-32 -19 -25 29 c-47 57 -69 134 -74 270 -4 116 -6 122 -17 89 -34 -96 -49
-285 -34 -409 6 -44 1 -49 -53 -45 -29 1 -64 6 -78 11 -25 8 -25 7 4 -19 16
-15 34 -24 40 -21 6 3 4 0 -4 -8 -9 -7 -24 -32 -34 -56 -11 -23 -25 -47 -32
-53 -24 -19 -29 19 -8 59 10 21 20 40 22 45 2 4 -9 7 -25 7 -15 1 -39 7 -52
14 -23 13 -26 12 -38 -11 -21 -40 -17 -119 7 -143 11 -11 24 -20 28 -20 4 0 9
-11 10 -25 2 -32 -32 -42 -95 -26 -83 21 -123 48 -144 97 -29 65 -37 54 -11
-15 6 -16 -43 14 -93 58 -19 17 -24 19 -15 6 22 -30 49 -52 113 -95 32 -21 53
-41 47 -45 -5 -3 -46 10 -90 29 -44 19 -77 30 -74 24 4 -6 1 -8 -7 -6 -8 3
-13 11 -11 17 1 7 -3 9 -9 6 -14 -9 -71 46 -115 110 -19 27 -34 45 -34 40 0
-6 7 -21 16 -33 8 -12 12 -27 9 -33 -8 -12 34 -61 46 -53 5 3 6 -2 3 -10 -3
-9 -11 -13 -17 -9 -25 15 -46 37 -42 44 3 4 -2 12 -10 19 -8 7 -15 17 -15 22
0 6 7 5 16 -2 13 -12 14 -10 3 14 -8 17 -15 23 -20 15 -4 -7 -7 -2 -7 12 0 13
-2 60 -5 104 -2 44 -1 92 4 107 5 20 4 25 -6 22 -11 -5 -21 -27 -52 -114 -3
-8 -4 -43 -3 -77 1 -51 -2 -63 -14 -63 -9 0 -16 8 -16 18 -1 16 -32 62 -44 62
-3 0 1 -15 9 -33 8 -19 11 -45 8 -58 -6 -27 -52 -81 -63 -74 -4 3 -16 -5 -26
-18 -19 -22 -19 -22 1 -7 16 11 15 10 -2 -7 -12 -12 -27 -43 -33 -70 -18 -82
-65 -136 -139 -161 -28 -10 -32 -9 -27 3 3 8 3 15 0 15 -16 0 -150 -44 -159
-52 -6 -5 -13 5 -20 28 -14 51 -28 52 -50 4 -10 -22 -22 -40 -27 -40 -4 0 -8
20 -8 45 0 56 -16 58 -37 6 -15 -39 -16 -40 -40 -23 -23 14 -25 21 -20 66 3
28 1 60 -4 71 -8 18 -9 18 -5 -4 6 -30 -22 -103 -37 -94 -7 4 -8 0 -3 -13 4
-10 4 -15 0 -11 -4 4 -13 2 -20 -4 -20 -16 -83 -29 -90 -17 -3 5 -11 7 -18 5
-7 -3 -12 3 -13 12 -1 14 5 16 30 13 28 -4 30 -3 19 11 -8 9 -11 21 -7 27 4 6
1 9 -7 8 -8 -2 -14 8 -16 25 -5 39 -22 23 -22 -21 0 -28 -3 -33 -10 -22 -8 11
-9 8 -4 -12 8 -37 -2 -35 -26 5 -26 43 -25 89 5 162 30 72 31 79 5 40 -10 -16
-32 -65 -47 -109 l-28 -79 -8 41 c-10 49 -21 53 -41 15 l-15 -28 -1 38 c0 20
11 65 25 100 71 174 166 238 305 205 8 -1 16 2 18 7 1 6 -9 11 -24 13 -26 3
-26 5 -20 60 4 31 16 98 26 147 11 50 23 117 26 150 4 37 9 53 13 42 4 -11 12
16 19 68 11 77 20 100 81 208 64 115 91 176 91 201 -1 15 -40 -36 -40 -52 0
-8 -5 -10 -12 -6 -7 5 -9 2 -5 -8 8 -21 -3 -30 -20 -17 -7 6 -13 30 -14 53 0
22 -5 50 -10 61 -7 14 -8 3 -5 -39z m2486 -192 c8 -9 -3 -4 -25 10 -51 35 -57
42 -19 23 17 -9 37 -23 44 -33z m-131 -69 c0 -26 -2 -27 -9 -10 -5 11 -9 31
-9 45 -1 20 1 22 9 10 5 -8 9 -28 9 -45z m-2513 -431 c-12 -45 -32 -94 -39
-94 -2 0 8 34 22 75 27 84 37 95 17 19z m-166 -158 c0 -9 -41 8 -52 22 -11 13
-8 12 20 -2 17 -9 32 -18 32 -20z m1560 -97 c0 -5 5 -7 12 -3 8 5 9 0 4 -17
-4 -13 -10 -36 -13 -51 -6 -33 -27 -27 -43 12 -9 21 -9 34 0 49 11 22 40 29
40 10z m-1639 -18 c18 28 9 -15 -11 -56 -11 -22 -17 -31 -13 -20 4 11 7 36 7
55 -1 19 1 29 4 21 4 -11 6 -11 13 0z m1150 -38 c13 -16 12 -17 -3 -4 -10 7
-18 15 -18 17 0 8 8 3 21 -13z m674 3 c39 -28 26 -113 -21 -135 -41 -18 -59 5
-29 35 17 18 4 54 -20 54 -20 0 -24 23 -7 43 18 20 51 22 77 3z m-535 -106
c-12 -8 -12 -10 -1 -10 8 0 12 -2 9 -5 -3 -3 -13 -2 -22 1 -14 5 -15 9 -4 15
7 5 18 9 23 9 6 0 3 -5 -5 -10z m443 -4 c4 -10 1 -13 -8 -9 -8 3 -12 9 -9 14
7 12 11 11 17 -5z m207 -122 c0 -2 -7 -4 -15 -4 -8 0 -15 4 -15 10 0 5 7 7 15
4 8 -4 15 -8 15 -10z"/>
<path d="M5515 2690 c-3 -5 -5 -10 -3 -11 33 -8 38 -7 27 7 -14 17 -16 17 -24
4z"/>
<path d="M2331 2654 c0 -11 3 -14 6 -6 3 7 2 16 -1 19 -3 4 -6 -2 -5 -13z"/>
<path d="M2336 2595 c-4 -16 -12 -45 -18 -63 -5 -18 -8 -36 -5 -38 9 -9 39 83
35 107 -4 23 -5 22 -12 -6z"/>
<path d="M5576 2588 c3 -5 10 -6 15 -3 13 9 11 12 -6 12 -8 0 -12 -4 -9 -9z"/>
<path d="M2762 2565 c0 -16 2 -22 5 -12 2 9 2 23 0 30 -3 6 -5 -1 -5 -18z"/>
<path d="M2823 2515 c0 -33 2 -45 4 -27 2 18 2 45 0 60 -2 15 -4 0 -4 -33z"/>
<path d="M5576 2557 c3 -10 9 -15 12 -12 3 3 0 11 -7 18 -10 9 -11 8 -5 -6z"/>
<path d="M2372 2525 c0 -16 2 -22 5 -12 2 9 2 23 0 30 -3 6 -5 -1 -5 -18z"/>
<path d="M2911 2504 c0 -11 3 -14 6 -6 3 7 2 16 -1 19 -3 4 -6 -2 -5 -13z"/>
<path d="M2317 2441 c-9 -16 -21 -57 -26 -92 -5 -35 -14 -77 -20 -92 -6 -16
-11 -47 -11 -70 1 -35 5 -27 25 53 45 177 55 223 52 226 -2 2 -11 -9 -20 -25z"/>
<path d="M2361 2454 c0 -11 3 -14 6 -6 3 7 2 16 -1 19 -3 4 -6 -2 -5 -13z"/>
<path d="M3023 2115 c0 -22 2 -30 4 -17 2 12 2 30 0 40 -3 9 -5 -1 -4 -23z"/>
<path d="M2742 2100 c0 -14 2 -19 5 -12 2 6 2 18 0 25 -3 6 -5 1 -5 -13z"/>
<path d="M3783 1875 c0 -27 2 -38 4 -22 2 15 2 37 0 50 -2 12 -4 0 -4 -28z"/>
<path d="M2481 1891 c-9 -6 -4 -10 18 -13 24 -4 28 -2 20 9 -13 15 -19 16 -38
4z"/>
<path d="M2288 1863 c12 -2 32 -2 45 0 12 2 2 4 -23 4 -25 0 -35 -2 -22 -4z"/>
<path d="M6008 1833 c6 -2 18 -2 25 0 6 3 1 5 -13 5 -14 0 -19 -2 -12 -5z"/>
<path d="M5331 1754 c0 -11 3 -14 6 -6 3 7 2 16 -1 19 -3 4 -6 -2 -5 -13z"/>
<path d="M3850 1700 c11 -16 26 -33 32 -36 7 -4 -1 9 -16 29 -34 44 -46 50
-16 7z"/>
<path d="M6505 1701 c44 -16 81 -28 83 -26 4 4 -99 43 -135 50 -15 3 8 -8 52
-24z"/>
<path d="M4875 1479 c-5 -15 -10 -18 -15 -9 -5 8 -9 7 -14 -6 -4 -10 -1 -24 8
-32 12 -13 18 -13 30 -2 11 8 16 9 16 1 0 -6 4 -11 9 -11 8 0 -9 64 -21 76 -4
3 -9 -4 -13 -17z"/>
</g>
</svg>
